# xmcd CD database file
#
# Track frame offsets:
#	150
#	35397
#	52695
#	66276
#	81381
#	92081
#	108338
#	123606
#	139714
#	152744
#	170652
#	189809
#	205071
#	221580
#	238877
#
# Disc length: 3401 seconds
#
# Revision: 2
# Processed by: cddbd v1.5.2PL0 Copyright (c) Steve Scherf et al.
# Submitted via: CDex 1.50Beta7
#
DISCID=cf0d470f
DTITLE=Jeff Lynne and Friends - Every little THing
DYEAR=2010
DGENRE=Pop
TTITLE0=Every little THing (12'' remix)
TTITLE1=Rockabilly Holiday
TTITLE2=Heartbreak Radio
TTITLE3=Sand in my Eyes
TTITLE4=Borderline
TTITLE5=Blue beyond the Grey
TTITLE6=Nobody's Angel
TTITLE7=The Trembler
TTITLE8=I'm gone
TTITLE9=Sirens
TTITLE10=Theme from "Something really Important"
TTITLE11=Work it out
TTITLE12=You're Wrong
TTITLE13=I drove all Night
TTITLE14=Lift me up
EXTD=YEAR: 2010
EXTT0=
EXTT1=
EXTT2=
EXTT3=
EXTT4=
EXTT5=
EXTT6=
EXTT7=
EXTT8=
EXTT9=
EXTT10=
EXTT11=
EXTT12=
EXTT13=
EXTT14=
PLAYORDER=
